# xmcd CD database file
#
# Track frame offsets:
#	187
#	10180
#	31827
#	48602
#	74972
#	92990
#	121517
#	136697
#	152695
#	165805
#
# Disc length: 2482 seconds
#
# Revision: 3
# Processed by: cddbd v1.5.2PL0 Copyright (c) Steve Scherf et al.
# Submitted via: CDex 1.70beta2
#
DISCID=7609b00a
DTITLE=Electronically created by Isao Tomita - Snowflakes Are Dancing
DYEAR=1974
DGENRE=New Age
TTITLE0=Snowflakes Are Dancing (Children's Corner, No.4)
TTITLE1=Reverie
TTITLE2=Gardens in the Rain (Estampes, No.3)
TTITLE3=Clair de lune　(Suite Bergamasque, No.3)
TTITLE4=Arabesque No.1
TTITLE5=The Engulfed Cathedral (Preludes, Book I, No.10)
TTITLE6=Passepied (Suite Bergamasque, No.4)
TTITLE7=The Girl with the Flaxen Hair (Preludes, Book I, No.8)
TTITLE8=Golliwog's Cakewalk (Children's Corner, No.6)
TTITLE9=Footprints in the Snow (Preludes, Book I, No.6) 
EXTD=YEAR: 1974
EXTT0=
EXTT1=
EXTT2=
EXTT3=
EXTT4=
EXTT5=
EXTT6=
EXTT7=
EXTT8=
EXTT9=
PLAYORDER=
